<svg xmlns="http://www.w3.org/2000/svg" xmlns:xlink="http://www.w3.org/1999/xlink"><symbol id="bg-ask-us-triangles-desktop@1x"><g stroke="#fff"><path d="m626.842 159.584-274.675 475.75-274.675-475.75z" opacity=".2"/><path d="M347.148 357.75 186.5 636 25.852 357.75zM1821.26 509.5l-278.25 160.648V348.852zm-352.35-254.364 174.34-100.656v201.313z" opacity=".2"/></g><g fill="#fff"><circle cx="77" cy="159" r="5"/><circle cx="26" cy="358" r="5"/><circle cx="187" cy="636" r="5"/><circle cx="352" cy="635" r="5"/><circle cx="627" cy="159" r="5"/></g></symbol><symbol id="bg-header-triangles-desktop@1x"><path d="m626.842 159.584-274.675 475.75-274.675-475.75z" opacity=".2" stroke="#fff"/><path d="M347.148 357.75 186.5 636 25.852 357.75z" opacity=".2" stroke="#fff"/><g fill="#fff"><circle cx="77" cy="159" r="5"/><circle cx="26" cy="358" r="5"/><circle cx="187" cy="636" r="5"/><circle cx="352" cy="635" r="5"/><circle cx="627" cy="159" r="5"/></g></symbol><symbol id="bg-header-triangles-mobile@1x"><path d="M472.852 74.235 266.129 432.29 59.406 74.235z" opacity=".2" stroke="#fff"/><path d="m262.133 223.531-120.816 209.26-120.816-209.26z" opacity=".2" stroke="#fff"/><g fill="#fff"><circle cx="58.821" cy="73.672" r="3.767"/><circle cx="20.399" cy="223.596" r="3.767"/><circle cx="141.694" cy="433.038" r="3.767"/></g></symbol><symbol id="bg-header-triangles-tablet@1x"><path d="M494.359 86.428 277.928 461.296 61.498 86.428z" opacity=".2" stroke="#fff"/><path d="M273.787 242.705 147.28 461.821 20.774 242.705z" opacity=".2" stroke="#fff"/><g fill="#fff"><circle cx="60.927" cy="85.862" r="3.943"/><circle cx="20.707" cy="242.797" r="3.943"/><circle cx="147.675" cy="462.032" r="3.943"/><circle cx="277.797" cy="461.244" r="3.943"/></g></symbol><symbol id="bg-info-figures-desktop"><path d="M593.208 633.738v549.352L117.457 908.413l475.751-274.675z" stroke="#EBEBEB"/><circle cx="116.739" cy="908.154" r="5" transform="rotate(-30 116.739 908.154)" fill="#F2F2F2"/><circle cx="592.896" cy="1182.88" r="5" transform="rotate(-30 592.896 1182.88)" fill="#F2F2F2"/><circle cx="593.053" cy="633.154" r="5" transform="rotate(-30 593.053 633.154)" fill="#F2F2F2"/><path d="M721.594 75.381v256.396L499.549 203.579 721.594 75.381zM1964.56 747.777V491.381l222.05 128.198-222.05 128.198zm-355.94-137.152-475.75 274.674V335.95l475.75 274.675z" stroke="#EBEBEB"/><circle cx="1132.74" cy="335.198" r="5" transform="rotate(30 1132.74 335.198)" fill="#F2F2F2"/><circle cx="1132.9" cy="884.926" r="5" transform="rotate(30 1132.9 884.926)" fill="#F2F2F2"/><circle cx="1609.05" cy="610.198" r="5" transform="rotate(30 1609.05 610.198)" fill="#F2F2F2"/></symbol><symbol id="bg-info-figures-mobile"><path d="M753.624 434.625 277.874 709.3V159.95l475.75 274.675z" stroke="#ebebeb"/><g fill="#f2f2f2"><circle cx="277.739" cy="159.198" r="5" transform="rotate(30 277.739 159.198)"/><circle cx="277.896" cy="708.926" r="5" transform="rotate(30 277.896 708.926)"/><circle cx="754.053" cy="434.198" r="5" transform="rotate(30 754.053 434.198)"/></g></symbol><symbol id="bg-info-figures-tablet"><path d="M1613.62 434.625 1137.87 709.3V159.95l475.75 274.675z" stroke="#ebebeb"/><g fill="#f2f2f2"><circle cx="1137.74" cy="159.198" r="5" transform="rotate(30 1137.74 159.198)"/><circle cx="1137.9" cy="708.926" r="5" transform="rotate(30 1137.9 708.926)"/><circle cx="1614.05" cy="434.198" r="5" transform="rotate(30 1614.05 434.198)"/></g><path d="M593.208 345.95V895.3l-475.75-274.674 475.75-274.675z" stroke="#ebebeb"/><g fill="#f2f2f2"><circle cx="116.739" cy="620.365" r="5" transform="rotate(330 116.739 620.365)"/><circle cx="592.896" cy="895.093" r="5" transform="rotate(330 592.896 895.093)"/><circle cx="593.053" cy="345.365" r="5" transform="rotate(330 593.053 345.365)"/></g></symbol><symbol id="icon-confidentiality"><g fill="#00b2ff"><path d="M18 9.758a.706.706 0 0 0-.703.708c0 .391.315.708.703.708s.703-.317.703-.708A.706.706 0 0 0 18 9.758z"/><path d="M33.89 14.007h-2.735C29.712 9.859 27.62 2.587 23.829.53c-1.896-1.028-3.688-.31-4.362 1.148A1.59 1.59 0 0 1 18 2.625a1.59 1.59 0 0 1-1.467-.946C15.883.27 14.133-.514 12.304.38 8.453 2.264 6.3 9.828 4.845 14.007H2.11c-1.166 0-2.11.95-2.11 2.123a2.12 2.12 0 0 0 2.11 2.124h31.78c1.166 0 2.11-.95 2.11-2.124a2.12 2.12 0 0 0-2.11-2.124zM7.316 11.174h7.872a.706.706 0 0 0 .704-.708.706.706 0 0 0-.704-.708h-7.38c2.12-5.896 4.1-7.609 5.111-8.104 1.104-.54 2.013-.088 2.34.622A2.996 2.996 0 0 0 18 4.041a2.996 2.996 0 0 0 2.742-1.765c.337-.73 1.25-1.134 2.42-.5 1.016.552 2.99 2.322 5.03 7.982h-7.38c-.388 0-.703.317-.703.708s.315.708.703.708h7.873c.355 1.033.725 2.098.98 2.833H6.335c.255-.733.623-1.796.98-2.833zm26.576 5.665H2.109a.706.706 0 0 1-.703-.708c0-.391.315-.708.703-.708h31.782c.387 0 .703.317.703.708 0 .39-.315.708-.703.708zm-17.298 4.248H5.344a.705.705 0 0 0-.703.708v2.832C4.64 28.141 7.479 31 10.969 31a6.316 6.316 0 0 0 5.915-4.105 2.681 2.681 0 0 1 2.233 0A6.315 6.315 0 0 0 25.03 31c3.49 0 6.328-2.859 6.328-6.373v-2.832a.706.706 0 0 0-.703-.708h-11.25a.706.706 0 0 0-.703.708v.708h-1.406v-.708a.705.705 0 0 0-.703-.708zm-5.625 8.497c-2.714 0-4.922-2.224-4.922-4.957v-2.124h9.844v2.124c0 2.74-2.196 4.957-4.922 4.957zm9.14-7.08h9.844v2.123c0 2.733-2.208 4.957-4.922 4.957-2.732 0-4.922-2.223-4.922-4.957zm-1.406 1.415v.708c0 .227.013.452.036.676a4.08 4.08 0 0 0-1.478 0c.023-.224.036-.45.036-.676v-.708z"/><path d="M10.969 26.752a2.12 2.12 0 0 1-2.11-2.125c0-.39-.314-.708-.703-.708s-.703.317-.703.708c0 1.952 1.577 3.54 3.516 3.54a.706.706 0 0 0 .703-.707.706.706 0 0 0-.703-.708zm14.062 1.416c1.939 0 3.516-1.589 3.516-3.54a.706.706 0 0 0-.703-.709.706.706 0 0 0-.703.708 2.12 2.12 0 0 1-2.11 2.125.706.706 0 0 0-.703.708c0 .39.315.708.703.708z"/></g></symbol><symbol id="icon-facebook"><path clip-rule="evenodd" d="M27 13.5C27 6.045 20.956 0 13.5 0S0 6.045 0 13.5C0 20.956 6.044 27 13.5 27S27 20.956 27 13.5zM16.884 9.294h-1.74c-.469 0-.798.397-.798.891v.775h2.485l-.402 2.517h-2.083v6.747h-2.543v-6.747h-1.688V10.96h1.688V9.677h.005c.044-1.463.552-2.856 3.03-2.944v-.01h2.046z" fill="#cdcdcd" fill-rule="evenodd"/></symbol><symbol id="icon-hidden"><path clip-rule="evenodd" d="M8.5 7.5V0h-1v7.5H0v1h7.5V16h1V8.5H16v-1z" fill="#c4c4c4" fill-rule="evenodd"/></symbol><symbol id="icon-odnoklassniki"><g fill="#cdcdcd"><path d="M13.851 10.957c1.016 0 1.806-.836 1.787-1.746.019-.91-.752-1.764-1.768-1.764-.978 0-1.787.78-1.787 1.746 0 .965.79 1.764 1.768 1.764z"/><path d="M13.701 0C6.441 0 .535 5.831.535 13c0 7.187 5.906 13 13.166 13 7.279 0 13.166-5.832 13.166-13C26.886 5.83 20.98 0 13.7 0zm.188 4.921c2.37 0 4.326 1.932 4.307 4.29 0 2.377-1.975 4.29-4.382 4.253-2.37-.037-4.27-1.95-4.27-4.271 0-2.359 1.938-4.272 4.345-4.272zm4.834 10.029c0 .037-.019.056-.019.093a1.213 1.213 0 0 1-.564.873c-.207.13-.433.26-.659.371a8.55 8.55 0 0 1-1.786.65c-.075.019-.075.019-.02.074l1.035 1.022 1.317 1.3c.62.613.451 1.634-.339 2.006-.131.074-.282.092-.432.13h-.245c-.019 0-.037 0-.037-.02-.301-.036-.546-.185-.771-.39l-2.276-2.246c-.057-.056-.057-.056-.113 0l-2.295 2.266c-.131.13-.263.222-.432.297-.113.055-.245.074-.358.092h-.244c-.038 0-.057-.018-.094-.018-.508-.093-.847-.371-.997-.854-.15-.483-.038-.91.32-1.263l.94-.929 1.392-1.374c.056-.056.056-.056-.019-.074-.019 0-.056-.019-.075-.019a8.182 8.182 0 0 1-2.351-.984c-.433-.279-.64-.687-.583-1.189.094-.928 1.147-1.43 1.937-.928.15.093.282.167.451.241a5.413 5.413 0 0 0 2.746.557c.47-.018.94-.111 1.411-.26.451-.148.846-.353 1.26-.575.677-.39 1.561-.075 1.824.65.038.11.057.204.076.315z"/></g></symbol><symbol id="icon-price"><g fill="#00b2ff"><path d="M11.07 8.585a.686.686 0 0 0-.966 0 .69.69 0 0 0-.2.483.685.685 0 0 0 1.367 0 .689.689 0 0 0-.2-.483z"/><path d="m34.8 2.859-.845-.847.845-.845A.684.684 0 0 0 33.833.2l-.845.845-.832-.834a.683.683 0 0 0-.484-.2L20.102.003H20.1c-.913 0-1.772.356-2.418 1.002L11.908 6.78a.684.684 0 0 0 .967.967l5.774-5.774A2.04 2.04 0 0 1 20.1 1.37h.002l11.286.007.634.634-2.537 2.537a2.805 2.805 0 0 0-3.419.422c-.529.529-.82 1.232-.82 1.98s.291 1.452.82 1.98a2.792 2.792 0 0 0 1.98.82c.717 0 1.434-.273 1.98-.82a2.806 2.806 0 0 0 .425-3.415l2.537-2.537.645.646-.007 11.273a2.04 2.04 0 0 1-.601 1.451L16.344 33.033a2.04 2.04 0 0 1-1.452.601 2.04 2.04 0 0 1-1.452-.601L1.97 21.559c-.388-.387-.602-.903-.602-1.452s.214-1.064.602-1.452l7.368-7.37a.684.684 0 0 0-.966-.966L1 17.689c-.643.644-1 1.504-1 2.417s.356 1.773 1.002 2.42L12.473 34a3.41 3.41 0 0 0 2.419 1 3.41 3.41 0 0 0 2.419-1l16.68-16.684a3.4 3.4 0 0 0 1.003-2.417L35 3.342a.683.683 0 0 0-.2-.483zm-5.74 5.106c-.271.27-.631.42-1.014.42s-.742-.15-1.013-.42a1.435 1.435 0 0 1 1.013-2.447c.138 0 .277.02.41.06l-.789.789a.684.684 0 0 0 .967.967l.787-.787a1.434 1.434 0 0 1-.361 1.418z"/><path d="m29.2 13.764-7.966-7.967a2.71 2.71 0 0 0-3.828 0L4.8 18.406c-.511.51-.793 1.19-.793 1.914s.282 1.403.793 1.914l7.967 7.968c.511.51 1.19.793 1.914.793a2.69 2.69 0 0 0 1.913-.793L29.2 17.592a2.69 2.69 0 0 0 .793-1.913 2.69 2.69 0 0 0-.793-1.914zm-.966 2.862L15.627 29.235a1.33 1.33 0 0 1-.947.392 1.33 1.33 0 0 1-.947-.392l-7.967-7.968a1.33 1.33 0 0 1-.392-.947c0-.358.139-.695.392-.948L18.373 6.764c.261-.262.604-.392.947-.392s.686.13.947.392l7.967 7.967c.253.253.392.59.392.948s-.14.694-.392.947z"/><path d="M22.29 13.677a.684.684 0 0 0-.966-.967l-.394.394c-1.051-.65-2.4-.562-3.252.29a2.48 2.48 0 0 0-.716 1.9c.034.704.337 1.376.853 1.892.55.55.611 1.384.137 1.859-.475.474-1.308.413-1.858-.137s-.612-1.384-.137-1.859a.684.684 0 0 0-.967-.967c-.853.853-.94 2.202-.29 3.253l-.468.467a.684.684 0 0 0 .968.967l.467-.467c.46.283.975.427 1.482.427.652 0 1.29-.238 1.77-.718 1.007-1.007.946-2.708-.137-3.791a1.512 1.512 0 0 1-.454-.991 1.13 1.13 0 0 1 .317-.868c.474-.475 1.308-.413 1.858.137s.611 1.384.137 1.858a.684.684 0 0 0 .966.967c.853-.852.94-2.201.29-3.252zm-6.918 11.335L11.86 21.5a.684.684 0 0 0-.967.967l3.511 3.512a.682.682 0 0 0 .967 0 .684.684 0 0 0 0-.967zm-5.384-5.385a.688.688 0 0 0-.483-.2.69.69 0 0 0-.483.2.69.69 0 0 0-.2.484.684.684 0 0 0 .683.683.688.688 0 0 0 .684-.683.689.689 0 0 0-.2-.484z"/></g></symbol><symbol id="icon-shown"><path d="M0 .5h16v1H0z" fill="#c4c4c4"/></symbol><symbol id="icon-suppliers"><g fill="#00b2ff"><path d="M31.264 27.893a3.132 3.132 0 0 0 .597-1.842v-4.108a.684.684 0 0 0-.684-.683h-3.055a2.564 2.564 0 0 0-2.561 2.561v2.23c0 .687.222 1.323.596 1.841a4.402 4.402 0 0 0-1.336.445 5.817 5.817 0 0 0-4.294-2.56l-.021-.005a4.02 4.02 0 0 0 1.03-2.69V17.5a.684.684 0 0 0-.684-.684H16.7a3.24 3.24 0 0 0-3.236 3.236v3.03a4.02 4.02 0 0 0 1.03 2.69l-.021.005a5.816 5.816 0 0 0-4.294 2.56c-.42-.22-.87-.369-1.337-.445a3.132 3.132 0 0 0 .597-1.84v-4.109a.684.684 0 0 0-.684-.683H5.7a2.564 2.564 0 0 0-2.56 2.561v2.23c0 .688.221 1.324.596 1.842A4.464 4.464 0 0 0 0 32.291v2.025c0 .378.306.684.684.684h33.632a.684.684 0 0 0 .684-.684v-2.025a4.464 4.464 0 0 0-3.736-4.398zM4.506 23.821c0-.658.536-1.194 1.194-1.194h2.372v.833a.74.74 0 0 1-.74.74H4.506zm0 1.746h2.826c.26 0 .51-.048.74-.135v.62c0 .982-.8 1.782-1.783 1.782-.983 0-1.783-.8-1.783-1.783zm2.224 3.634-.44.44-.442-.44zm2.468 2.363v2.069h-7.83V32.29a3.095 3.095 0 0 1 2.588-3.049l1.85 1.85a.684.684 0 0 0 .966 0l1.85-1.85c.327.053.642.158.934.312a5.784 5.784 0 0 0-.358 2.01zm8.302-5.813a2.672 2.672 0 0 1-2.668-2.668v-.904h4.085c.453 0 .88-.115 1.252-.319v1.223a2.672 2.672 0 0 1-2.669 2.669zm1.192 1.368L17.5 28.31l-1.192-1.191zm-3.86-7.067a1.87 1.87 0 0 1 1.868-1.868h3.469v1.377c0 .69-.562 1.251-1.252 1.251H14.83zm9.603 13.58h-13.87v-1.366h4.451a.684.684 0 1 0 0-1.368h-4.4a4.455 4.455 0 0 1 3.8-3.738l2.6 2.6a.682.682 0 0 0 .967 0l2.601-2.6a4.451 4.451 0 0 1 3.85 4.404zm2.493-9.81c0-.66.536-1.195 1.194-1.195h2.372v.833a.74.74 0 0 1-.74.74h-2.826zm0 1.745h2.826c.26 0 .51-.048.74-.135v.62c0 .982-.8 1.782-1.783 1.782-.983 0-1.783-.8-1.783-1.783zm2.224 3.634-.441.44-.44-.44zm-3.35 4.432v-2.069c0-.706-.127-1.383-.358-2.01.292-.154.606-.26.933-.312l1.85 1.85a.684.684 0 0 0 .967 0l1.85-1.85a3.095 3.095 0 0 1 2.589 3.05v1.34zM20.869 4.466a.684.684 0 0 0-.967 0l-3.354 3.355-1.45-1.45a.684.684 0 1 0-.967.967l1.933 1.933a.684.684 0 0 0 .967 0l3.838-3.838a.684.684 0 0 0 0-.967z"/><path d="M20.295.593a.684.684 0 0 0-.557 1.248 5.51 5.51 0 0 1 3.264 5.028A5.508 5.508 0 0 1 17.5 12.37a5.508 5.508 0 0 1-5.501-5.501 5.515 5.515 0 0 1 3.24-5.017.683.683 0 1 0-.563-1.246 6.885 6.885 0 0 0-4.045 6.263 6.877 6.877 0 0 0 6.869 6.868 6.876 6.876 0 0 0 6.869-6.868A6.88 6.88 0 0 0 20.295.593z"/><path d="M17.524 0H17.5a.684.684 0 0 0 0 1.367h.021A.684.684 0 0 0 17.524 0zm.459 31.099c-.127-.127-.303-.2-.483-.2s-.356.073-.483.2-.2.303-.2.483a.688.688 0 0 0 .683.684.688.688 0 0 0 .684-.684.689.689 0 0 0-.2-.483z"/></g></symbol><symbol id="icon-time"><g fill="#00b2ff"><path d="M3.188 11.662 1.702 10.19a2.038 2.038 0 0 1 0-2.9c.807-.8 2.122-.8 2.929 0l1.587 1.572a14.58 14.58 0 0 1 5.52-2.311V4.51h-1.38a.687.687 0 0 1-.691-.683V2.051C9.667.92 10.596 0 11.738 0h5.524c1.142 0 2.071.92 2.071 2.05v1.778a.687.687 0 0 1-.69.684h-1.381V6.55a14.578 14.578 0 0 1 5.52 2.31l1.587-1.57c.807-.8 2.121-.8 2.93 0a2.04 2.04 0 0 1 0 2.9l-1.487 1.471A14.252 14.252 0 0 1 29 20.644C29 28.56 22.495 35 14.5 35S0 28.56 0 20.645c0-3.277 1.128-6.442 3.188-8.983zm.467-3.405a.696.696 0 0 0-.977 0 .68.68 0 0 0 0 .967l1.427 1.412c.322-.327.659-.638 1.01-.934zm14.297-6.206a.688.688 0 0 0-.69-.684h-5.524c-.38 0-.69.307-.69.684v1.094h6.904zM13.12 4.51v1.843a15.006 15.006 0 0 1 2.762 0V4.512zm13.203 3.746a.696.696 0 0 0-.977 0l-1.46 1.445c.351.296.688.607 1.01.934l1.427-1.412a.68.68 0 0 0 0-.967zM14.5 33.633c7.234 0 13.119-5.827 13.119-12.989 0-3.159-1.158-6.202-3.262-8.57A13.177 13.177 0 0 0 14.5 7.656a13.18 13.18 0 0 0-7.936 2.645 13.19 13.19 0 0 0-1.921 1.771 12.898 12.898 0 0 0-3.262 8.572c0 7.161 5.885 12.988 13.119 12.988z"/><path d="M14.5 22.695a2.063 2.063 0 0 1-2.071-2.05c0-.891.577-1.651 1.38-1.934V13.81c0-.378.31-.684.691-.684s.69.306.69.684v4.902a2.056 2.056 0 0 1 1.382 1.934c0 1.13-.93 2.05-2.072 2.05zm0-2.734c-.38 0-.69.307-.69.684 0 .377.31.683.69.683s.69-.306.69-.684a.688.688 0 0 0-.69-.683z"/><path d="M7.145 13.433a.54.54 0 0 1 .033-.037l.04-.037a10.417 10.417 0 0 1 4.353-2.55.682.682 0 1 1 .391 1.311 9.028 9.028 0 0 0-3.298 1.78l.466.46c.27.268.27.7 0 .968a.692.692 0 0 1-.977 0l-.467-.462A8.758 8.758 0 0 0 5.55 19.96h.664c.382 0 .69.306.69.684a.686.686 0 0 1-.69.683H5.55a8.757 8.757 0 0 0 2.136 5.095l.467-.462a.696.696 0 0 1 .977 0c.27.267.27.7 0 .967l-.467.462a8.941 8.941 0 0 0 5.147 2.115v-.657c0-.378.309-.684.69-.684.381 0 .69.306.69.684v.657a8.939 8.939 0 0 0 5.147-2.115l-.467-.462a.679.679 0 0 1 0-.967.696.696 0 0 1 .977 0l.467.462a8.758 8.758 0 0 0 2.136-5.095h-.664c-.382 0-.69-.306-.69-.684s.308-.683.69-.683h.664a8.758 8.758 0 0 0-2.136-5.095l-.467.462a.692.692 0 0 1-.977 0 .68.68 0 0 1 0-.967l.466-.461a9.024 9.024 0 0 0-3.298-1.78.684.684 0 1 1 .391-1.312 10.414 10.414 0 0 1 4.351 2.55.672.672 0 0 1 .042.037l.033.037a10.132 10.132 0 0 1 3.002 7.213c0 2.718-1.066 5.277-3.001 7.211a.555.555 0 0 1-.034.037.38.38 0 0 1-.037.033 10.34 10.34 0 0 1-7.285 2.972c-2.746 0-5.33-1.055-7.284-2.971l-.038-.034c-.012-.011-.022-.024-.033-.036a10.132 10.132 0 0 1-3.002-7.212 10.13 10.13 0 0 1 3.002-7.212z"/><path d="M14.5 11.758c-.381 0-.69-.306-.69-.684s.309-.683.69-.683c.381 0 .69.306.69.683s-.309.684-.69.684z"/></g></symbol><symbol id="icon-vector"><path d="m1 8.5 4-4-4-4" stroke="#fff" stroke-linejoin="round"/></symbol><symbol id="logo-service-device"><path d="M76.936 24.337c0-.724-.188-1.27-.562-1.636-.366-.374-1.038-.76-2.014-1.16-1.782-.675-3.064-1.464-3.845-2.368-.782-.911-1.172-1.985-1.172-3.222 0-1.498.529-2.698 1.587-3.601 1.066-.912 2.417-1.368 4.052-1.368 1.09 0 2.063.232 2.918.696a4.708 4.708 0 0 1 1.965 1.941c.464.838.696 1.79.696 2.857h-3.577c0-.83-.179-1.461-.537-1.893-.35-.439-.858-.659-1.526-.659-.626 0-1.114.187-1.464.562-.35.366-.525.862-.525 1.49 0 .487.195.93.586 1.33.39.39 1.082.797 2.075 1.22 1.733.627 2.99 1.396 3.772 2.307.79.912 1.184 2.072 1.184 3.48 0 1.546-.492 2.754-1.477 3.625s-2.324 1.306-4.016 1.306c-1.148 0-2.193-.236-3.137-.708a5.35 5.35 0 0 1-2.222-2.026c-.53-.88-.794-1.917-.794-3.113h3.601c0 1.025.2 1.77.599 2.234.398.464 1.05.696 1.953.696 1.253 0 1.88-.664 1.88-1.99zm11.157 4.907c-1.774 0-3.158-.529-4.15-1.587-.993-1.058-1.49-2.571-1.49-4.54v-1.05c0-2.084.456-3.691 1.367-4.822.912-1.132 2.218-1.697 3.919-1.697 1.66 0 2.91.533 3.747 1.599.838 1.058 1.266 2.629 1.282 4.712v1.697h-6.872c.048.976.264 1.692.646 2.148.383.448.973.671 1.77.671 1.156 0 2.12-.394 2.894-1.184l1.355 2.088c-.424.586-1.038 1.062-1.844 1.428a6.388 6.388 0 0 1-2.624.537zM85.92 21.14h3.455v-.318c-.017-.79-.147-1.387-.391-1.794-.244-.407-.667-.61-1.27-.61-.602 0-1.041.215-1.318.647-.269.43-.427 1.123-.476 2.075zm15.32-2.014-1.148-.098c-.944 0-1.583.415-1.916 1.245V29h-3.467V15.792h3.26l.097 1.428c.545-1.115 1.298-1.672 2.258-1.672.391 0 .708.053.952.158zm6.335 4.992 1.673-8.325h3.601L109.223 29h-3.296l-3.637-13.208h3.613zM118.098 29h-3.467V15.792h3.467zm-3.626-16.626c0-.537.171-.977.513-1.318s.797-.513 1.367-.513 1.025.17 1.367.513.513.78.513 1.318c0 .529-.171.968-.513 1.318-.333.35-.789.525-1.367.525s-1.038-.175-1.379-.525c-.334-.35-.501-.789-.501-1.318zm11.072 14.001c1.001 0 1.51-.65 1.526-1.953h3.247c-.016 1.44-.46 2.604-1.331 3.492-.87.887-1.993 1.33-3.369 1.33-1.701 0-2.999-.529-3.894-1.587-.895-1.058-1.351-2.616-1.367-4.675v-1.05c0-2.075.439-3.658 1.318-4.748.887-1.09 2.194-1.636 3.919-1.636 1.456 0 2.604.451 3.442 1.355.838.895 1.266 2.169 1.282 3.82h-3.247c-.008-.74-.13-1.31-.366-1.708-.236-.4-.627-.599-1.172-.599-.602 0-1.034.216-1.294.647-.261.424-.399 1.25-.415 2.478v1.343c0 1.074.053 1.827.158 2.259.106.423.281.736.525.94.244.195.59.293 1.038.293zm12.06 2.87c-1.774 0-3.157-.53-4.15-1.588-.993-1.058-1.489-2.571-1.489-4.54v-1.05c0-2.084.456-3.691 1.367-4.822s2.218-1.697 3.918-1.697c1.661 0 2.91.533 3.748 1.599.838 1.058 1.266 2.629 1.282 4.712v1.697h-6.873c.049.976.265 1.692.647 2.148.383.448.973.671 1.77.671 1.156 0 2.12-.394 2.893-1.184l1.355 2.088c-.423.586-1.037 1.062-1.843 1.428a6.388 6.388 0 0 1-2.625.537zm-2.172-8.106h3.454v-.318c-.016-.79-.146-1.387-.39-1.794-.245-.407-.668-.61-1.27-.61s-1.042.215-1.318.647c-.269.43-.428 1.123-.476 2.075zM150.166 29V11.227h4.699c2.075 0 3.727.659 4.956 1.977 1.237 1.318 1.868 3.125 1.892 5.42v2.88c0 2.337-.618 4.172-1.855 5.506-1.229 1.327-2.926 1.99-5.09 1.99zm3.588-14.783v11.804h1.075c1.196 0 2.038-.313 2.526-.94.489-.634.745-1.725.77-3.27v-3.09c0-1.66-.232-2.815-.696-3.466-.464-.66-1.254-1.005-2.368-1.038zm15.711 15.027c-1.774 0-3.158-.529-4.151-1.587-.992-1.058-1.489-2.571-1.489-4.54v-1.05c0-2.084.456-3.691 1.367-4.822.912-1.132 2.218-1.697 3.919-1.697 1.66 0 2.909.533 3.747 1.599.839 1.058 1.266 2.629 1.282 4.712v1.697h-6.872c.048.976.264 1.692.647 2.148.382.448.972.671 1.77.671 1.155 0 2.12-.394 2.893-1.184l1.355 2.088c-.424.586-1.038 1.062-1.844 1.428a6.383 6.383 0 0 1-2.624.537zm-2.173-8.105h3.455v-.318c-.017-.79-.147-1.387-.391-1.794s-.667-.61-1.27-.61c-.602 0-1.041.215-1.318.647-.268.43-.427 1.123-.476 2.075zm12.964 2.978 1.672-8.325h3.601L181.904 29h-3.296l-3.638-13.208h3.613zM190.778 29h-3.466V15.792h3.466zm-3.625-16.626c0-.537.171-.977.513-1.318.341-.342.797-.513 1.367-.513.569 0 1.025.17 1.367.513s.513.78.513 1.318c0 .529-.171.968-.513 1.318-.334.35-.789.525-1.367.525s-1.038-.175-1.38-.525c-.333-.35-.5-.789-.5-1.318zm11.072 14.001c1.001 0 1.509-.65 1.525-1.953h3.248c-.017 1.44-.46 2.604-1.331 3.492-.871.887-1.994 1.33-3.369 1.33-1.701 0-2.999-.529-3.894-1.587-.895-1.058-1.351-2.616-1.367-4.675v-1.05c0-2.075.439-3.658 1.318-4.748.887-1.09 2.193-1.636 3.918-1.636 1.457 0 2.605.451 3.443 1.355.838.895 1.265 2.169 1.282 3.82h-3.248c-.008-.74-.13-1.31-.366-1.708-.236-.4-.626-.599-1.172-.599-.602 0-1.033.216-1.294.647-.26.424-.398 1.25-.415 2.478v1.343c0 1.074.053 1.827.159 2.259.106.423.281.736.525.94.244.195.59.293 1.038.293zm12.06 2.87c-1.774 0-3.157-.53-4.15-1.588-.993-1.058-1.489-2.571-1.489-4.54v-1.05c0-2.084.455-3.691 1.367-4.822.911-1.132 2.217-1.697 3.918-1.697 1.66 0 2.909.533 3.748 1.599.838 1.058 1.265 2.629 1.281 4.712v1.697h-6.872c.049.976.264 1.692.647 2.148.382.448.972.671 1.77.671 1.155 0 2.12-.394 2.893-1.184l1.355 2.088c-.423.586-1.038 1.062-1.843 1.428a6.392 6.392 0 0 1-2.625.537zm-2.173-8.106h3.455v-.318c-.016-.79-.147-1.387-.391-1.794s-.667-.61-1.269-.61-1.042.215-1.319.647c-.268.43-.427 1.123-.476 2.075z" fill="#203c42"/><path d="m70.947 44.96 1.29-4.3h1.517l-2.52 7.3c-.386 1.067-1.043 1.6-1.968 1.6a2.55 2.55 0 0 1-.686-.105v-1.101l.27.017c.359 0 .629-.066.808-.2.184-.128.328-.347.434-.655l.205-.545-2.227-6.31h1.535zm7.395.288 1.875-4.588h1.781V47h-1.424v-4.195L78.828 47h-.967l-1.752-4.219V47h-1.424v-6.34h1.793zM88.97 47h-1.424v-2.56H85.08V47h-1.424v-6.34h1.424v2.643h2.467V40.66h1.424zm3.052-4.324h1.395c.52 0 .973.09 1.36.27.386.179.679.431.878.755.203.324.305.701.305 1.131 0 .652-.23 1.176-.692 1.57-.46.395-1.074.594-1.84.598H90.6v-6.34h1.424zM98.44 47h-1.423v-6.34h1.423zm-6.416-3.182v2.045h1.39c.347 0 .62-.086.82-.257.202-.176.304-.424.304-.745s-.1-.572-.299-.755c-.195-.188-.46-.284-.797-.288zm10.916 3.3c-.902 0-1.634-.284-2.197-.85-.558-.57-.838-1.328-.838-2.274v-.176c0-.632.121-1.197.364-1.693.246-.5.589-.889 1.031-1.166a2.715 2.715 0 0 1 1.476-.416c.864 0 1.53.275 1.998.826.473.55.709 1.33.709 2.338v.574h-4.142c.043.524.217.938.521 1.242.309.305.696.457 1.16.457.653 0 1.184-.263 1.594-.79l.768.732a2.58 2.58 0 0 1-1.02.885c-.422.207-.896.31-1.424.31zm-.169-5.432c-.391 0-.708.136-.95.41-.238.273-.39.654-.457 1.142h2.713v-.105c-.031-.477-.158-.836-.381-1.078-.222-.246-.531-.37-.925-.37zm11.8.105h-2.056V47h-1.424v-5.209h-2.033v-1.13h5.513zm3.369 5.326c-.902 0-1.634-.283-2.197-.85-.558-.57-.838-1.328-.838-2.273v-.176c0-.632.121-1.197.364-1.693.246-.5.589-.889 1.031-1.166a2.715 2.715 0 0 1 1.476-.416c.864 0 1.53.275 1.998.826.473.55.709 1.33.709 2.338v.574h-4.142c.043.524.217.938.521 1.242.309.305.696.457 1.16.457.653 0 1.184-.263 1.594-.79l.768.732a2.58 2.58 0 0 1-1.02.885c-.422.207-.896.31-1.424.31zm-.169-5.431c-.391 0-.708.136-.95.41-.238.273-.39.654-.457 1.142h2.713v-.105c-.031-.477-.158-.836-.381-1.078-.222-.246-.531-.37-.925-.37zm6.099 1.06 1.207-2.086h1.582l-1.939 3.123L126.723 47h-1.571l-1.265-2.168-1.26 2.168h-1.582l2.004-3.217-1.934-3.123h1.571zM132.998 47h-1.424v-2.56h-2.467V47h-1.423v-6.34h1.423v2.643h2.467V40.66h1.424zm1.254-3.228c0-.622.123-1.18.369-1.676.246-.5.592-.883 1.037-1.149.446-.27.957-.404 1.535-.404.856 0 1.549.275 2.08.826.536.55.825 1.281.868 2.192l.005.334c0 .625-.121 1.183-.363 1.675a2.638 2.638 0 0 1-1.031 1.143c-.445.27-.961.404-1.547.404-.894 0-1.611-.297-2.15-.89-.535-.598-.803-1.393-.803-2.385zm1.424.123c0 .652.135 1.164.404 1.535.27.367.645.55 1.125.55.481 0 .854-.187 1.119-.562.27-.375.405-.924.405-1.646 0-.641-.139-1.149-.417-1.524-.273-.375-.646-.562-1.119-.562-.464 0-.834.185-1.107.556-.274.367-.41.918-.41 1.653zm10.969-3.235V47h-1.424v-5.191h-1.793l-.117 2.209c-.075 1.062-.28 1.826-.616 2.29-.332.462-.841.692-1.529.692h-.439l-.006-1.184.293-.029c.312-.043.539-.232.679-.568.145-.34.237-.957.276-1.852l.117-2.707zm1.248 3.112c0-.622.123-1.18.369-1.676.246-.5.592-.883 1.037-1.149.445-.27.957-.404 1.535-.404.855 0 1.549.275 2.08.826.535.55.824 1.281.867 2.192l.006.334c0 .625-.121 1.183-.363 1.675a2.638 2.638 0 0 1-1.031 1.143c-.446.27-.961.404-1.547.404-.895 0-1.612-.297-2.151-.89-.535-.598-.802-1.393-.802-2.385zm1.423.123c0 .652.135 1.164.405 1.535.269.367.644.55 1.125.55.48 0 .853-.187 1.119-.562.269-.375.404-.924.404-1.646 0-.641-.139-1.149-.416-1.524-.273-.375-.646-.562-1.119-.562-.465 0-.834.185-1.107.556-.274.367-.411.918-.411 1.653zm9.897-2.086h-2.754V47h-1.418v-6.34h4.172zm4.764-1.149h1.418V47h-1.418v-4.23L161.492 47h-1.418v-6.34h1.418v4.23zm6.89 0h1.418V47h-1.418v-4.23L168.383 47h-1.418v-6.34h1.418v4.23z" fill="#788891"/><g fill="#00b2ff"><path d="M32.067 13.867c1.128 0 2.082.727 2.44 1.733h8.986a2.596 2.596 0 0 1 2.44-1.733c1.434 0 2.6 1.166 2.6 2.6 0 1.433-1.166 2.6-2.6 2.6a2.597 2.597 0 0 1-2.44-1.734h-8.987a2.597 2.597 0 0 1-2.44 1.733 2.603 2.603 0 0 1-2.6-2.6c0-1.433 1.167-2.6 2.6-2.6zm13.866 3.466a.868.868 0 0 0 0-1.733.867.867 0 0 0 0 1.733zm-13.866 0a.868.868 0 1 0-.002-1.735.868.868 0 0 0 .002 1.735z"/><path d="M25.133 19.226v-5.36c0-.23.091-.45.254-.612l3.467-3.467a.864.864 0 0 1 .613-.254h2.76a2.596 2.596 0 0 1 2.44-1.733c1.433 0 2.6 1.166 2.6 2.6 0 1.433-1.167 2.6-2.6 2.6a2.596 2.596 0 0 1-2.44-1.734h-2.402l-2.958 2.96v5a2.596 2.596 0 0 1 1.733 2.44c0 1.434-1.167 2.6-2.6 2.6a2.603 2.603 0 0 1-2.6-2.6c0-1.128.727-2.081 1.733-2.44zm9.534-7.96a.868.868 0 1 0-.002-1.735.868.868 0 0 0 .002 1.735zM26 22.534a.867.867 0 1 0-.002-1.735.867.867 0 0 0 .002 1.735zM9.533 22.533c.4 0 .775.098 1.114.26l1.486-1.485V13c0-.23.091-.45.254-.613l8.674-8.673A2.556 2.556 0 0 1 20.8 2.6c0-1.433 1.166-2.6 2.6-2.6S26 1.167 26 2.6s-1.167 2.6-2.6 2.6c-.4 0-.775-.098-1.114-.261l-8.42 8.42v8.307c0 .23-.09.451-.253.613l-1.74 1.74c.162.34.26.714.26 1.114 0 1.433-1.166 2.6-2.6 2.6s-2.6-1.167-2.6-2.6 1.167-2.6 2.6-2.6zM23.4 3.467a.868.868 0 0 0 0-1.734.868.868 0 0 0 0 1.734zM9.533 26a.868.868 0 1 0-.001-1.735A.868.868 0 0 0 9.533 26zM1.733 12.293V8.667c0-.231.091-.451.254-.613l6.067-6.067a.864.864 0 0 1 .613-.254h4.492A2.597 2.597 0 0 1 15.6 0c1.433 0 2.6 1.167 2.6 2.6s-1.167 2.6-2.6 2.6a2.597 2.597 0 0 1-2.44-1.733H9.024L3.467 9.025v3.268a2.596 2.596 0 0 1 1.733 2.44c0 1.433-1.167 2.6-2.6 2.6S0 16.166 0 14.733c0-1.128.727-2.082 1.733-2.44zM15.6 3.467a.867.867 0 1 0-.002-1.735.867.867 0 0 0 .002 1.735zM2.6 15.6a.867.867 0 1 0-.002-1.735A.867.867 0 0 0 2.6 15.6zM13.866 46.96V34.507a2.597 2.597 0 0 1-1.733-2.44c0-1.434 1.167-2.6 2.6-2.6 1.129 0 2.082.726 2.44 1.732h8.986c.36-1.006 1.313-1.733 2.441-1.733s2.082.727 2.44 1.733h5.001l3.22-3.22A2.557 2.557 0 0 1 39 26.867c0-1.433 1.166-2.6 2.6-2.6 1.433 0 2.6 1.167 2.6 2.6 0 1.434-1.167 2.6-2.6 2.6-.4 0-.775-.098-1.114-.26l-3.473 3.473a.864.864 0 0 1-.613.254h-5.36c-.358 1.006-1.312 1.733-2.44 1.733s-2.082-.727-2.44-1.733h-8.987a2.598 2.598 0 0 1-1.574 1.574v12.452a2.596 2.596 0 0 1 1.733 2.441c0 1.433-1.166 2.6-2.6 2.6a2.603 2.603 0 0 1-2.6-2.6c0-1.128.728-2.082 1.734-2.44zM41.6 27.732a.867.867 0 1 0-.002-1.735.867.867 0 0 0 .002 1.735zm-13 5.2a.868.868 0 1 0-.002-1.735.868.868 0 0 0 .002 1.735zM14.733 50.266a.868.868 0 0 0 0-1.733.868.868 0 0 0 0 1.733zm0-17.333a.868.868 0 0 0 0-1.733.868.868 0 0 0 0 1.733z"/><path d="M18.2 17.492v-2.759c0-.23.091-.45.254-.613L28.86 3.714A2.556 2.556 0 0 1 28.6 2.6c0-1.433 1.167-2.6 2.6-2.6 1.128 0 2.082.727 2.44 1.733h3.627c.478 0 .866.388.866.867v2.241l3.22 3.22c.339-.163.713-.261 1.114-.261 1.433 0 2.6 1.166 2.6 2.6 0 1.433-1.167 2.6-2.6 2.6a2.603 2.603 0 0 1-2.6-2.6c0-.4.098-.775.26-1.114l-3.473-3.473A.863.863 0 0 1 36.4 5.2V3.467h-2.76A2.596 2.596 0 0 1 31.2 5.2c-.4 0-.775-.098-1.114-.261L19.933 15.092v2.4a2.596 2.596 0 0 1 1.734 2.441c0 1.433-1.167 2.6-2.6 2.6a2.603 2.603 0 0 1-2.6-2.6c0-1.128.727-2.082 1.733-2.44zm24.267-6.226a.868.868 0 1 0-.002-1.735.868.868 0 0 0 .002 1.736zM31.2 3.467a.868.868 0 0 0 0-1.733.868.868 0 0 0 0 1.734zM19.067 20.8a.868.868 0 1 0-.002-1.735.868.868 0 0 0 .002 1.735z"/><path d="M20.8 24.266c1.128 0 2.082.727 2.44 1.734h10.201l4.946-4.946A.864.864 0 0 1 39 20.8h9.175l2.092-2.092v-7.083L43.58 4.94c-.338.163-.713.26-1.113.26a2.603 2.603 0 0 1-2.6-2.599c0-1.433 1.166-2.6 2.6-2.6 1.433 0 2.6 1.167 2.6 2.6 0 .4-.098.775-.261 1.114l6.94 6.94a.863.863 0 0 1 .254.613v7.8c0 .23-.091.45-.254.612l-2.6 2.6a.864.864 0 0 1-.613.254H39.36l-4.946 4.946a.864.864 0 0 1-.613.254H23.24a2.596 2.596 0 0 1-2.44 1.733 2.603 2.603 0 0 1-2.6-2.6c0-1.433 1.167-2.6 2.6-2.6zM42.467 1.733a.868.868 0 1 0 .001 1.735.868.868 0 0 0-.001-1.735zm-21.667 26a.868.868 0 0 0 0-1.733.868.868 0 0 0 0 1.733zM2.6 20.8c.4 0 .775.098 1.114.26l3.22-3.219v-5A2.596 2.596 0 0 1 5.2 10.4c0-1.434 1.167-2.6 2.6-2.6s2.6 1.166 2.6 2.6a2.596 2.596 0 0 1-1.733 2.44v5.36c0 .23-.091.45-.254.613l-3.474 3.473c.163.339.261.713.261 1.114a2.597 2.597 0 0 1-1.733 2.44v.668l6.679 6.679a.863.863 0 0 1 .254.613v1.026c1.006.358 1.733 1.312 1.733 2.44s-.727 2.082-1.733 2.44v2.054a2.596 2.596 0 0 1 1.733 2.44c0 1.434-1.166 2.6-2.6 2.6a2.603 2.603 0 0 1-2.6-2.6c0-1.128.727-2.082 1.734-2.44v-2.053c-1.007-.36-1.734-1.312-1.734-2.44s.727-2.083 1.734-2.441v-.668l-6.68-6.679a.863.863 0 0 1-.254-.613V25.84A2.597 2.597 0 0 1 0 23.4c0-1.434 1.166-2.6 2.6-2.6zm5.2-9.534a.867.867 0 1 0-.002-1.734.867.867 0 0 0 .002 1.734zm1.733 33.8a.868.868 0 0 0 0-1.733.867.867 0 0 0 0 1.733zm0-6.933a.868.868 0 0 0 0-1.733.867.867 0 0 0 0 1.733zM2.6 24.266a.867.867 0 1 0-.002-1.735.867.867 0 0 0 .002 1.735z"/></g></symbol><symbol id="logo-smart-device-mobile"><g fill="#00b2ff"><path d="M23.433 10.133c.825 0 1.522.532 1.784 1.267h6.566a1.897 1.897 0 0 1 1.784-1.267c1.047 0 1.9.853 1.9 1.9 0 1.048-.853 1.9-1.9 1.9a1.897 1.897 0 0 1-1.784-1.266h-6.567a1.897 1.897 0 0 1-1.783 1.266c-1.048 0-1.9-.852-1.9-1.9 0-1.047.853-1.9 1.9-1.9zm10.134 2.534a.634.634 0 1 0-.002-1.268.634.634 0 0 0 .002 1.268zm-10.133 0a.634.634 0 1 0-.002-1.269.634.634 0 0 0 .002 1.269z"/><path d="M18.367 14.05v-3.917a.63.63 0 0 1 .185-.448l2.534-2.533a.632.632 0 0 1 .447-.185h2.017A1.897 1.897 0 0 1 25.333 5.7c1.048 0 1.9.852 1.9 1.9s-.852 1.9-1.9 1.9a1.897 1.897 0 0 1-1.783-1.267h-1.754l-2.163 2.162v3.655a1.897 1.897 0 0 1 1.267 1.783c0 1.048-.852 1.9-1.9 1.9-1.047 0-1.9-.852-1.9-1.9 0-.825.531-1.521 1.267-1.783zm6.966-5.817a.634.634 0 1 0 0-1.268.634.634 0 0 0 0 1.268zM19 16.466A.634.634 0 1 0 19 15.198.634.634 0 0 0 19 16.466zM6.967 16.466c.292 0 .566.072.814.191l1.086-1.086V9.5a.63.63 0 0 1 .185-.448l6.339-6.338A1.87 1.87 0 0 1 15.2 1.9c0-1.048.853-1.9 1.9-1.9S19 .852 19 1.9c0 1.047-.853 1.9-1.9 1.9-.293 0-.566-.072-.814-.19l-6.153 6.152v6.071a.63.63 0 0 1-.185.448l-1.272 1.272c.12.247.19.52.19.813 0 1.048-.852 1.9-1.9 1.9-1.047 0-1.9-.852-1.9-1.9 0-1.047.853-1.9 1.9-1.9zM17.1 2.533a.634.634 0 1 0-.001-1.268.634.634 0 0 0 .001 1.268zM6.967 19a.634.634 0 1 0-.002-1.268A.634.634 0 0 0 6.967 19zM1.267 8.983v-2.65a.63.63 0 0 1 .186-.448l4.433-4.433a.632.632 0 0 1 .448-.185h3.283A1.897 1.897 0 0 1 11.4 0c1.048 0 1.9.852 1.9 1.9 0 1.047-.852 1.9-1.9 1.9a1.897 1.897 0 0 1-1.783-1.267H6.596L2.534 6.595v2.388A1.897 1.897 0 0 1 3.8 10.766c0 1.048-.852 1.9-1.9 1.9-1.047 0-1.9-.852-1.9-1.9 0-.824.532-1.52 1.267-1.783zM11.4 2.533a.634.634 0 1 0 0-1.268.634.634 0 0 0 0 1.268zM1.9 11.4a.634.634 0 1 0 0-1.268.634.634 0 0 0 0 1.268zM10.133 34.317v-9.1a1.898 1.898 0 0 1-1.266-1.784c0-1.048.852-1.9 1.9-1.9.825 0 1.521.531 1.783 1.267h6.567c.262-.736.959-1.267 1.783-1.267s1.522.531 1.784 1.267h3.654l2.353-2.353a1.87 1.87 0 0 1-.19-.814c0-1.047.852-1.9 1.9-1.9s1.9.853 1.9 1.9-.853 1.9-1.9 1.9c-.293 0-.567-.072-.815-.19l-2.538 2.538a.632.632 0 0 1-.448.185h-3.916c-.262.736-.96 1.267-1.784 1.267s-1.521-.531-1.783-1.267H12.55a1.898 1.898 0 0 1-1.15 1.15v9.1a1.897 1.897 0 0 1 1.266 1.784c0 1.048-.852 1.9-1.9 1.9-1.047 0-1.9-.853-1.9-1.9 0-.825.532-1.521 1.267-1.783zM30.4 20.267a.634.634 0 1 0 0-1.268.634.634 0 0 0 0 1.267zm-9.5 3.8a.634.634 0 1 0-.001-1.269.634.634 0 0 0 .001 1.268zM10.767 36.732a.634.634 0 1 0-.001-1.268.634.634 0 0 0 .001 1.268zm0-12.667a.634.634 0 1 0-.001-1.268.634.634 0 0 0 .001 1.268z"/><path d="M13.3 12.783v-2.017a.63.63 0 0 1 .185-.447l7.605-7.605a1.868 1.868 0 0 1-.19-.814c0-1.048.852-1.9 1.9-1.9.824 0 1.521.531 1.783 1.267h2.65c.35 0 .633.283.633.633v1.638L30.22 5.89c.248-.12.521-.191.814-.191 1.048 0 1.9.852 1.9 1.9 0 1.047-.852 1.9-1.9 1.9s-1.9-.853-1.9-1.9c0-.293.072-.566.19-.814l-2.538-2.538A.63.63 0 0 1 26.6 3.8V2.533h-2.017A1.897 1.897 0 0 1 22.8 3.8a1.87 1.87 0 0 1-.814-.19l-7.42 7.419v1.754a1.897 1.897 0 0 1 1.267 1.783c0 1.048-.852 1.9-1.9 1.9s-1.9-.852-1.9-1.9c0-.824.531-1.52 1.267-1.783zm17.733-4.55a.634.634 0 1 0-.001-1.268.634.634 0 0 0 .001 1.268zm-8.233-5.7a.634.634 0 1 0-.002-1.268.634.634 0 0 0 .002 1.268zM13.933 15.2a.634.634 0 1 0-.001-1.268.634.634 0 0 0 .001 1.268z"/><path d="M15.2 17.733c.825 0 1.521.531 1.784 1.267h7.454l3.614-3.615a.632.632 0 0 1 .448-.185h6.705l1.528-1.53V8.496L31.847 3.61a1.87 1.87 0 0 1-.814.19c-1.047 0-1.9-.852-1.9-1.899 0-1.048.853-1.9 1.9-1.9 1.048 0 1.9.852 1.9 1.9 0 .293-.071.566-.19.814l5.071 5.071a.63.63 0 0 1 .186.448v5.7a.63.63 0 0 1-.186.448l-1.9 1.9a.631.631 0 0 1-.447.185h-6.705l-3.614 3.615a.632.632 0 0 1-.448.185h-7.716a1.897 1.897 0 0 1-1.784 1.267c-1.047 0-1.9-.852-1.9-1.9s.853-1.9 1.9-1.9zM31.033 1.267a.634.634 0 1 0 .002 1.268.634.634 0 0 0-.002-1.268zm-15.833 19a.634.634 0 1 0-.001-1.268.634.634 0 0 0 .001 1.267zM1.9 15.2c.293 0 .567.071.814.19l2.353-2.352V9.383A1.897 1.897 0 0 1 3.801 7.6c0-1.048.852-1.9 1.9-1.9s1.9.852 1.9 1.9c0 .825-.532 1.521-1.267 1.783V13.3a.63.63 0 0 1-.186.448L3.61 16.286c.119.248.19.521.19.814 0 .824-.53 1.521-1.266 1.783v.488l4.881 4.88a.63.63 0 0 1 .186.449v.75c.735.262 1.266.958 1.266 1.783s-.531 1.521-1.266 1.783v1.5A1.897 1.897 0 0 1 8.867 32.3c0 1.048-.852 1.9-1.9 1.9-1.047 0-1.9-.852-1.9-1.9 0-.824.532-1.521 1.267-1.783v-1.5c-.735-.263-1.267-.96-1.267-1.784s.532-1.521 1.267-1.783v-.488L1.453 20.08a.63.63 0 0 1-.186-.448v-.75A1.897 1.897 0 0 1 .001 17.1c0-1.048.852-1.9 1.9-1.9zm3.8-6.967a.634.634 0 1 0 0-1.268.634.634 0 0 0 0 1.268zm1.267 24.7a.634.634 0 1 0-.001-1.268.634.634 0 0 0 .001 1.268zm0-5.067a.634.634 0 1 0-.001-1.268.634.634 0 0 0 .001 1.268zM1.901 17.733a.634.634 0 1 0-.002-1.268.634.634 0 0 0 .002 1.268z"/></g></symbol><symbol id="logo-smart-device"><path d="M76.936 24.337c0-.724-.188-1.27-.562-1.636-.366-.374-1.038-.76-2.014-1.16-1.782-.675-3.064-1.464-3.845-2.368-.782-.911-1.172-1.985-1.172-3.222 0-1.498.529-2.698 1.587-3.601 1.066-.912 2.417-1.368 4.052-1.368 1.09 0 2.063.232 2.918.696a4.708 4.708 0 0 1 1.965 1.941c.464.838.696 1.79.696 2.857h-3.577c0-.83-.179-1.461-.537-1.893-.35-.439-.858-.659-1.526-.659-.626 0-1.114.187-1.464.562-.35.366-.525.862-.525 1.49 0 .487.195.93.586 1.33.39.39 1.082.797 2.075 1.22 1.733.627 2.99 1.396 3.772 2.307.79.912 1.184 2.072 1.184 3.48 0 1.546-.492 2.754-1.477 3.625s-2.324 1.306-4.016 1.306c-1.148 0-2.193-.236-3.137-.708a5.35 5.35 0 0 1-2.222-2.026c-.53-.88-.794-1.917-.794-3.113h3.601c0 1.025.2 1.77.599 2.234.398.464 1.05.696 1.953.696 1.253 0 1.88-.664 1.88-1.99zm9.07-8.545.097 1.22c.773-.976 1.795-1.464 3.064-1.464 1.318 0 2.25.594 2.795 1.782.757-1.188 1.835-1.782 3.235-1.782 2.311 0 3.495 1.599 3.552 4.797V29h-3.454v-8.435c0-.765-.106-1.31-.318-1.636-.211-.325-.57-.488-1.074-.488-.643 0-1.123.395-1.44 1.184l.024.415V29h-3.454v-8.41c0-.757-.102-1.303-.306-1.636-.203-.342-.565-.513-1.086-.513-.594 0-1.066.321-1.416.964V29h-3.454V15.792zM107.586 29c-.097-.203-.195-.545-.293-1.025-.618.846-1.456 1.27-2.514 1.27-1.107 0-2.027-.367-2.759-1.1-.724-.732-1.086-1.68-1.086-2.844 0-1.383.439-2.453 1.318-3.21.887-.757 2.161-1.144 3.821-1.16h1.05V19.87c0-.594-.102-1.013-.306-1.257-.203-.244-.5-.366-.891-.366-.862 0-1.294.504-1.294 1.513h-3.454c0-1.22.455-2.226 1.367-3.015.919-.797 2.079-1.196 3.479-1.196 1.448 0 2.567.378 3.357 1.135.797.749 1.196 1.823 1.196 3.223v6.213c.016 1.14.179 2.03.488 2.673V29zm-2.038-2.466c.382 0 .708-.077.976-.232.269-.154.468-.338.599-.55v-2.746h-.831c-.585 0-1.049.187-1.391.562-.334.374-.501.875-.501 1.501 0 .977.383 1.465 1.148 1.465zm14.05-7.41-1.147-.097c-.944 0-1.583.415-1.917 1.245V29h-3.467V15.792h3.26l.097 1.428c.546-1.115 1.298-1.672 2.259-1.672.39 0 .708.053.952.158zm6.409-6.58v3.248h1.77v2.6h-1.77v6.555c0 .521.069.88.207 1.074.147.196.424.293.83.293.334 0 .607-.028.818-.085l-.024 2.686c-.586.22-1.221.33-1.904.33-2.23 0-3.357-1.279-3.382-3.834v-7.019h-1.526v-2.6h1.526v-3.247zM135.615 29V11.227h4.699c2.076 0 3.728.659 4.957 1.977 1.236 1.318 1.867 3.125 1.892 5.42v2.88c0 2.337-.619 4.172-1.856 5.506-1.229 1.327-2.925 1.99-5.09 1.99zm3.589-14.783v11.804h1.074c1.196 0 2.038-.313 2.527-.94.488-.634.744-1.725.769-3.27v-3.09c0-1.66-.232-2.815-.696-3.466-.464-.66-1.253-1.005-2.368-1.038zm15.71 15.027c-1.774 0-3.157-.529-4.15-1.587-.993-1.058-1.49-2.571-1.49-4.54v-1.05c0-2.084.456-3.691 1.368-4.822.911-1.132 2.217-1.697 3.918-1.697 1.66 0 2.909.533 3.748 1.599.838 1.058 1.265 2.629 1.281 4.712v1.697h-6.872c.049.976.264 1.692.647 2.148.382.448.972.671 1.77.671 1.155 0 2.12-.394 2.893-1.184l1.355 2.088c-.423.586-1.038 1.062-1.843 1.428a6.392 6.392 0 0 1-2.625.537zm-2.173-8.105h3.455v-.318c-.016-.79-.147-1.387-.391-1.794s-.667-.61-1.269-.61c-.603 0-1.042.215-1.319.647-.268.43-.427 1.123-.476 2.075zm12.964 2.978 1.672-8.325h3.602L167.353 29h-3.296l-3.638-13.208h3.614zM176.228 29h-3.467V15.792h3.467zm-3.626-16.626c0-.537.171-.977.513-1.318s.797-.513 1.367-.513 1.025.17 1.367.513.513.78.513 1.318c0 .529-.171.968-.513 1.318-.334.35-.789.525-1.367.525s-1.038-.175-1.379-.525c-.334-.35-.501-.789-.501-1.318zm11.072 14.001c1.001 0 1.509-.65 1.526-1.953h3.247c-.016 1.44-.46 2.604-1.331 3.492-.871.887-1.994 1.33-3.369 1.33-1.701 0-2.999-.529-3.894-1.587-.895-1.058-1.351-2.616-1.367-4.675v-1.05c0-2.075.439-3.658 1.318-4.748.887-1.09 2.193-1.636 3.919-1.636 1.456 0 2.604.451 3.442 1.355.838.895 1.266 2.169 1.282 3.82H185.2c-.008-.74-.131-1.31-.367-1.708-.236-.4-.626-.599-1.171-.599-.603 0-1.034.216-1.294.647-.261.424-.399 1.25-.415 2.478v1.343c0 1.074.053 1.827.158 2.259.106.423.281.736.525.94.244.195.59.293 1.038.293zm12.06 2.87c-1.774 0-3.157-.53-4.15-1.588-.993-1.058-1.489-2.571-1.489-4.54v-1.05c0-2.084.455-3.691 1.367-4.822.911-1.132 2.218-1.697 3.918-1.697 1.661 0 2.91.533 3.748 1.599.838 1.058 1.265 2.629 1.282 4.712v1.697h-6.873c.049.976.265 1.692.647 2.148.383.448.973.671 1.77.671 1.156 0 2.12-.394 2.893-1.184l1.355 2.088c-.423.586-1.037 1.062-1.843 1.428a6.392 6.392 0 0 1-2.625.537zm-2.172-8.106h3.454v-.318c-.016-.79-.146-1.387-.391-1.794-.244-.407-.667-.61-1.269-.61s-1.042.215-1.318.647c-.269.43-.428 1.123-.476 2.075z" fill="#fff"/><path d="m70.947 44.96 1.29-4.3h1.517l-2.52 7.3c-.386 1.067-1.043 1.6-1.968 1.6a2.55 2.55 0 0 1-.686-.105v-1.101l.27.017c.359 0 .629-.066.808-.2.184-.128.328-.347.434-.655l.205-.545-2.227-6.31h1.535zm7.395.288 1.875-4.588h1.781V47h-1.424v-4.195L78.828 47h-.967l-1.752-4.219V47h-1.424v-6.34h1.793zM88.97 47h-1.424v-2.56H85.08V47h-1.424v-6.34h1.424v2.643h2.467V40.66h1.424zm3.052-4.324h1.395c.52 0 .973.09 1.36.27.386.179.679.431.878.755.203.324.305.701.305 1.131 0 .652-.23 1.176-.692 1.57-.46.395-1.074.594-1.84.598H90.6v-6.34h1.424zM98.44 47h-1.423v-6.34h1.423zm-6.416-3.182v2.045h1.39c.347 0 .62-.086.82-.257.202-.176.304-.424.304-.745s-.1-.572-.299-.755c-.195-.188-.46-.284-.797-.288zm10.916 3.3c-.902 0-1.634-.284-2.197-.85-.558-.57-.838-1.328-.838-2.274v-.176c0-.632.121-1.197.364-1.693.246-.5.589-.889 1.031-1.166a2.715 2.715 0 0 1 1.476-.416c.864 0 1.53.275 1.998.826.473.55.709 1.33.709 2.338v.574h-4.142c.043.524.217.938.521 1.242.309.305.696.457 1.16.457.653 0 1.184-.263 1.594-.79l.768.732a2.58 2.58 0 0 1-1.02.885c-.422.207-.896.31-1.424.31zm-.169-5.432c-.391 0-.708.136-.95.41-.238.273-.39.654-.457 1.142h2.713v-.105c-.031-.477-.158-.836-.381-1.078-.222-.246-.531-.37-.925-.37zm11.8.105h-2.056V47h-1.424v-5.209h-2.033v-1.13h5.513zm3.369 5.326c-.902 0-1.634-.283-2.197-.85-.558-.57-.838-1.328-.838-2.273v-.176c0-.632.121-1.197.364-1.693.246-.5.589-.889 1.031-1.166a2.715 2.715 0 0 1 1.476-.416c.864 0 1.53.275 1.998.826.473.55.709 1.33.709 2.338v.574h-4.142c.043.524.217.938.521 1.242.309.305.696.457 1.16.457.653 0 1.184-.263 1.594-.79l.768.732a2.58 2.58 0 0 1-1.02.885c-.422.207-.896.31-1.424.31zm-.169-5.431c-.391 0-.708.136-.95.41-.238.273-.39.654-.457 1.142h2.713v-.105c-.031-.477-.158-.836-.381-1.078-.222-.246-.531-.37-.925-.37zm6.099 1.06 1.207-2.086h1.582l-1.939 3.123L126.723 47h-1.571l-1.265-2.168-1.26 2.168h-1.582l2.004-3.217-1.934-3.123h1.571zM132.998 47h-1.424v-2.56h-2.467V47h-1.423v-6.34h1.423v2.643h2.467V40.66h1.424zm1.254-3.228c0-.622.123-1.18.369-1.676.246-.5.592-.883 1.037-1.149.446-.27.957-.404 1.535-.404.856 0 1.549.275 2.08.826.536.55.825 1.281.868 2.192l.005.334c0 .625-.121 1.183-.363 1.675a2.638 2.638 0 0 1-1.031 1.143c-.445.27-.961.404-1.547.404-.894 0-1.611-.297-2.15-.89-.535-.598-.803-1.393-.803-2.385zm1.424.123c0 .652.135 1.164.404 1.535.27.367.645.55 1.125.55.481 0 .854-.187 1.119-.562.27-.375.405-.924.405-1.646 0-.641-.139-1.149-.417-1.524-.273-.375-.646-.562-1.119-.562-.464 0-.834.185-1.107.556-.274.367-.41.918-.41 1.653zm10.969-3.235V47h-1.424v-5.191h-1.793l-.117 2.209c-.075 1.062-.28 1.826-.616 2.29-.332.462-.841.692-1.529.692h-.439l-.006-1.184.293-.029c.312-.043.539-.232.679-.568.145-.34.237-.957.276-1.852l.117-2.707zm1.248 3.112c0-.622.123-1.18.369-1.676.246-.5.592-.883 1.037-1.149.445-.27.957-.404 1.535-.404.855 0 1.549.275 2.08.826.535.55.824 1.281.867 2.192l.006.334c0 .625-.121 1.183-.363 1.675a2.638 2.638 0 0 1-1.031 1.143c-.446.27-.961.404-1.547.404-.895 0-1.612-.297-2.151-.89-.535-.598-.802-1.393-.802-2.385zm1.423.123c0 .652.135 1.164.405 1.535.269.367.644.55 1.125.55.48 0 .853-.187 1.119-.562.269-.375.404-.924.404-1.646 0-.641-.139-1.149-.416-1.524-.273-.375-.646-.562-1.119-.562-.465 0-.834.185-1.107.556-.274.367-.411.918-.411 1.653zm9.897-2.086h-2.754V47h-1.418v-6.34h4.172zm4.764-1.149h1.418V47h-1.418v-4.23L161.492 47h-1.418v-6.34h1.418v4.23zm6.89 0h1.418V47h-1.418v-4.23L168.383 47h-1.418v-6.34h1.418v4.23z" fill="#788891"/><g fill="#00b2ff"><path d="M32.067 13.867c1.128 0 2.082.727 2.44 1.733h8.986a2.596 2.596 0 0 1 2.44-1.733c1.434 0 2.6 1.166 2.6 2.6 0 1.433-1.166 2.6-2.6 2.6a2.597 2.597 0 0 1-2.44-1.734h-8.987a2.597 2.597 0 0 1-2.44 1.733 2.603 2.603 0 0 1-2.6-2.6c0-1.433 1.167-2.6 2.6-2.6zm13.866 3.466a.868.868 0 0 0 0-1.733.867.867 0 0 0 0 1.733zm-13.866 0a.868.868 0 1 0-.002-1.735.868.868 0 0 0 .002 1.735z"/><path d="M25.133 19.226v-5.36c0-.23.091-.45.254-.612l3.467-3.467a.864.864 0 0 1 .613-.254h2.76a2.596 2.596 0 0 1 2.44-1.733c1.433 0 2.6 1.166 2.6 2.6 0 1.433-1.167 2.6-2.6 2.6a2.596 2.596 0 0 1-2.44-1.734h-2.402l-2.958 2.96v5a2.596 2.596 0 0 1 1.733 2.44c0 1.434-1.167 2.6-2.6 2.6a2.603 2.603 0 0 1-2.6-2.6c0-1.128.727-2.081 1.733-2.44zm9.534-7.96a.868.868 0 1 0-.002-1.735.868.868 0 0 0 .002 1.735zM26 22.534a.867.867 0 1 0-.002-1.735.867.867 0 0 0 .002 1.735zM9.533 22.533c.4 0 .775.098 1.114.26l1.486-1.485V13c0-.23.091-.45.254-.613l8.674-8.673A2.556 2.556 0 0 1 20.8 2.6c0-1.433 1.166-2.6 2.6-2.6S26 1.167 26 2.6s-1.167 2.6-2.6 2.6c-.4 0-.775-.098-1.114-.261l-8.42 8.42v8.307c0 .23-.09.451-.253.613l-1.74 1.74c.162.34.26.714.26 1.114 0 1.433-1.166 2.6-2.6 2.6s-2.6-1.167-2.6-2.6 1.167-2.6 2.6-2.6zM23.4 3.467a.868.868 0 0 0 0-1.734.868.868 0 0 0 0 1.734zM9.533 26a.868.868 0 1 0-.001-1.735A.868.868 0 0 0 9.533 26zM1.733 12.293V8.667c0-.231.091-.451.254-.613l6.067-6.067a.864.864 0 0 1 .613-.254h4.492A2.597 2.597 0 0 1 15.6 0c1.433 0 2.6 1.167 2.6 2.6s-1.167 2.6-2.6 2.6a2.597 2.597 0 0 1-2.44-1.733H9.024L3.467 9.025v3.268a2.596 2.596 0 0 1 1.733 2.44c0 1.433-1.167 2.6-2.6 2.6S0 16.166 0 14.733c0-1.128.727-2.082 1.733-2.44zM15.6 3.467a.867.867 0 1 0-.002-1.735.867.867 0 0 0 .002 1.735zM2.6 15.6a.867.867 0 1 0-.002-1.735A.867.867 0 0 0 2.6 15.6zM13.866 46.96V34.507a2.597 2.597 0 0 1-1.733-2.44c0-1.434 1.167-2.6 2.6-2.6 1.129 0 2.082.726 2.44 1.732h8.986c.36-1.006 1.313-1.733 2.441-1.733s2.082.727 2.44 1.733h5.001l3.22-3.22A2.557 2.557 0 0 1 39 26.867c0-1.433 1.166-2.6 2.6-2.6 1.433 0 2.6 1.167 2.6 2.6 0 1.434-1.167 2.6-2.6 2.6-.4 0-.775-.098-1.114-.26l-3.473 3.473a.864.864 0 0 1-.613.254h-5.36c-.358 1.006-1.312 1.733-2.44 1.733s-2.082-.727-2.44-1.733h-8.987a2.598 2.598 0 0 1-1.574 1.574v12.452a2.596 2.596 0 0 1 1.733 2.441c0 1.433-1.166 2.6-2.6 2.6a2.603 2.603 0 0 1-2.6-2.6c0-1.128.728-2.082 1.734-2.44zM41.6 27.732a.867.867 0 1 0-.002-1.735.867.867 0 0 0 .002 1.735zm-13 5.2a.868.868 0 1 0-.002-1.735.868.868 0 0 0 .002 1.735zM14.733 50.266a.868.868 0 0 0 0-1.733.868.868 0 0 0 0 1.733zm0-17.333a.868.868 0 0 0 0-1.733.868.868 0 0 0 0 1.733z"/><path d="M18.2 17.492v-2.759c0-.23.091-.45.254-.613L28.86 3.714A2.556 2.556 0 0 1 28.6 2.6c0-1.433 1.167-2.6 2.6-2.6 1.128 0 2.082.727 2.44 1.733h3.627c.478 0 .866.388.866.867v2.241l3.22 3.22c.339-.163.713-.261 1.114-.261 1.433 0 2.6 1.166 2.6 2.6 0 1.433-1.167 2.6-2.6 2.6a2.603 2.603 0 0 1-2.6-2.6c0-.4.098-.775.26-1.114l-3.473-3.473A.863.863 0 0 1 36.4 5.2V3.467h-2.76A2.596 2.596 0 0 1 31.2 5.2c-.4 0-.775-.098-1.114-.261L19.933 15.092v2.4a2.596 2.596 0 0 1 1.734 2.441c0 1.433-1.167 2.6-2.6 2.6a2.603 2.603 0 0 1-2.6-2.6c0-1.128.727-2.082 1.733-2.44zm24.267-6.226a.868.868 0 1 0-.002-1.735.868.868 0 0 0 .002 1.736zM31.2 3.467a.868.868 0 0 0 0-1.733.868.868 0 0 0 0 1.734zM19.067 20.8a.868.868 0 1 0-.002-1.735.868.868 0 0 0 .002 1.735z"/><path d="M20.8 24.266c1.128 0 2.082.727 2.44 1.734h10.201l4.946-4.946A.864.864 0 0 1 39 20.8h9.175l2.092-2.092v-7.083L43.58 4.94c-.338.163-.713.26-1.113.26a2.603 2.603 0 0 1-2.6-2.599c0-1.433 1.166-2.6 2.6-2.6 1.433 0 2.6 1.167 2.6 2.6 0 .4-.098.775-.261 1.114l6.94 6.94a.863.863 0 0 1 .254.613v7.8c0 .23-.091.45-.254.612l-2.6 2.6a.864.864 0 0 1-.613.254H39.36l-4.946 4.946a.864.864 0 0 1-.613.254H23.24a2.596 2.596 0 0 1-2.44 1.733 2.603 2.603 0 0 1-2.6-2.6c0-1.433 1.167-2.6 2.6-2.6zM42.467 1.733a.868.868 0 1 0 .001 1.735.868.868 0 0 0-.001-1.735zm-21.667 26a.868.868 0 0 0 0-1.733.868.868 0 0 0 0 1.733zM2.6 20.8c.4 0 .775.098 1.114.26l3.22-3.219v-5A2.596 2.596 0 0 1 5.2 10.4c0-1.434 1.167-2.6 2.6-2.6s2.6 1.166 2.6 2.6a2.596 2.596 0 0 1-1.733 2.44v5.36c0 .23-.091.45-.254.613l-3.474 3.473c.163.339.261.713.261 1.114a2.597 2.597 0 0 1-1.733 2.44v.668l6.679 6.679a.863.863 0 0 1 .254.613v1.026c1.006.358 1.733 1.312 1.733 2.44s-.727 2.082-1.733 2.44v2.054a2.596 2.596 0 0 1 1.733 2.44c0 1.434-1.166 2.6-2.6 2.6a2.603 2.603 0 0 1-2.6-2.6c0-1.128.727-2.082 1.734-2.44v-2.053c-1.007-.36-1.734-1.312-1.734-2.44s.727-2.083 1.734-2.441v-.668l-6.68-6.679a.863.863 0 0 1-.254-.613V25.84A2.597 2.597 0 0 1 0 23.4c0-1.434 1.166-2.6 2.6-2.6zm5.2-9.534a.867.867 0 1 0-.002-1.734.867.867 0 0 0 .002 1.734zm1.733 33.8a.868.868 0 0 0 0-1.733.867.867 0 0 0 0 1.733zm0-6.933a.868.868 0 0 0 0-1.733.867.867 0 0 0 0 1.733zM2.6 24.266a.867.867 0 1 0-.002-1.735.867.867 0 0 0 .002 1.735z"/></g></symbol></svg>